# xmcd
#
# Track frame offsets:
#	150
#	9964
#	21941
#	34251
#	46261
#	58503
#	71170
#	81147
#	91984
#	104012
#	115936
#	128140
#	140319
#	150370
#	161454
#	171805
#	182989
#	195660
#	205629
#	217116
#
# Disc length: 3038 seconds
#
# Revision: 0
# Processed by: cddbd v1.5.2PL0 Copyright (c) Steve Scherf et al.
# Submitted via: audiograbber 1.83.01
#
DISCID=100bdc14
DTITLE=Wanda Jackson - The Famous Wanda Jackson CD13
DYEAR=2012
DGENRE=Country
TTITLE0=Seven Lonely Days
TTITLE1=Silver Threads And Golden Needles
TTITLE2=Since I Met You Baby
TTITLE3=Sinful Heart
TTITLE4=Singing The Blues
TTITLE5=Slippin'
TTITLE6=Slippin´And Slidin'
TTITLE7=So Soon
TTITLE8=Song Of The Wind
TTITLE9=Sparklin Brown Eyes
TTITLE10=Stand By Your Man
TTITLE11=Step By Step
TTITLE12=Sticks And Stones
TTITLE13=Stop The World
TTITLE14=Stupid Cupid
TTITLE15=Sweet Nothings
TTITLE16=Swinging Doors
TTITLE17=Sympathy
TTITLE18=Take Me Home
TTITLE19=Tears At The Grand Ole Opry
EXTD=
EXTT0=
EXTT1=
EXTT2=
EXTT3=
EXTT4=
EXTT5=
EXTT6=
EXTT7=
EXTT8=
EXTT9=
EXTT10=
EXTT11=
EXTT12=
EXTT13=
EXTT14=
EXTT15=
EXTT16=
EXTT17=
EXTT18=
EXTT19=
PLAYORDER=
